<svg xmlns="http://www.w3.org/2000/svg" viewBox="0 0 120 120" width="120" height="120">
  <defs>
    <linearGradient id="bg" x1="0" y1="0" x2="0" y2="1">
      <stop offset="0" stop-color="#34d399"/>
      <stop offset="1" stop-color="#059669"/>
    </linearGradient>
    <radialGradient id="sheen" cx="0.5" cy="-0.1" r="1.1">
      <stop offset="0" stop-color="#ffffff" stop-opacity="0.28"/>
      <stop offset="0.55" stop-color="#ffffff" stop-opacity="0"/>
    </radialGradient>
  </defs>
  <rect width="120" height="120" rx="27" fill="url(#bg)"/>
  <rect width="120" height="120" rx="27" fill="url(#sheen)"/>
  <g stroke="#0f172a" fill="none" stroke-linecap="round" stroke-linejoin="round" opacity="0.14" transform="translate(0, 1.8)">
    <path d="M60 34 c-10.5 0 -18 7.5 -18 17 0 12 18 27 18 27 s18 -15 18 -27 c0 -9.5 -7.5 -17 -18 -17 Z" fill="none" stroke-width="6"/>
    <circle cx="60" cy="50" r="6" fill="none" stroke-width="5"/>
    <circle cx="28" cy="28" r="4.5" fill="#0f172a" stroke="none"/>
    <circle cx="92" cy="28" r="4.5" fill="#0f172a" stroke="none"/>
    <circle cx="28" cy="92" r="4.5" fill="#0f172a" stroke="none"/>
    <circle cx="92" cy="92" r="4.5" fill="#0f172a" stroke="none"/>
    <path d="M33 33 L43 41 M87 33 L77 41 M33 87 L45 75 M87 87 L75 75" fill="none" stroke-width="5" />
  </g>
  <g stroke="#ffffff" fill="none" stroke-linecap="round" stroke-linejoin="round">
    <path d="M60 34 c-10.5 0 -18 7.5 -18 17 0 12 18 27 18 27 s18 -15 18 -27 c0 -9.5 -7.5 -17 -18 -17 Z" fill="none" stroke-width="6"/>
    <circle cx="60" cy="50" r="6" fill="none" stroke-width="5"/>
    <circle cx="28" cy="28" r="4.5" fill="#ffffff" stroke="none"/>
    <circle cx="92" cy="28" r="4.5" fill="#ffffff" stroke="none"/>
    <circle cx="28" cy="92" r="4.5" fill="#ffffff" stroke="none"/>
    <circle cx="92" cy="92" r="4.5" fill="#ffffff" stroke="none"/>
    <path d="M33 33 L43 41 M87 33 L77 41 M33 87 L45 75 M87 87 L75 75" fill="none" stroke-width="5" opacity="0.85"/>
  </g>
</svg>
