<svg xmlns="http://www.w3.org/2000/svg" viewBox="0 0 120 120" width="120" height="120">
  <defs>
    <linearGradient id="bg" x1="0" y1="0" x2="0" y2="1">
      <stop offset="0" stop-color="#f87171"/>
      <stop offset="1" stop-color="#dc2626"/>
    </linearGradient>
    <radialGradient id="sheen" cx="0.5" cy="-0.1" r="1.1">
      <stop offset="0" stop-color="#ffffff" stop-opacity="0.28"/>
      <stop offset="0.55" stop-color="#ffffff" stop-opacity="0"/>
    </radialGradient>
  </defs>
  <rect width="120" height="120" rx="27" fill="url(#bg)"/>
  <rect width="120" height="120" rx="27" fill="url(#sheen)"/>
  <g stroke="#0f172a" fill="none" stroke-linecap="round" stroke-linejoin="round" opacity="0.14" transform="translate(0, 1.8)">
    <path d="M44 52 V30 a5 5 0 0 1 5 -5 h22 a5 5 0 0 1 5 5 V52" fill="none" stroke-width="6"/>
    <path d="M52 36 h16 M52 44 h16" fill="none" stroke-width="4"/>
    <rect x="28" y="52" width="64" height="16" rx="8" fill="none" stroke-width="6"/>
    <path d="M42 75 v12 M54 75 v17 M66 75 v10 M78 75 v14" fill="none" stroke-width="5"/>
  </g>
  <g stroke="#ffffff" fill="none" stroke-linecap="round" stroke-linejoin="round">
    <path d="M44 52 V30 a5 5 0 0 1 5 -5 h22 a5 5 0 0 1 5 5 V52" fill="none" stroke-width="6"/>
    <path d="M52 36 h16 M52 44 h16" fill="none" stroke-width="4"/>
    <rect x="28" y="52" width="64" height="16" rx="8" fill="none" stroke-width="6"/>
    <path d="M42 75 v12 M54 75 v17 M66 75 v10 M78 75 v14" fill="none" stroke-width="5"/>
  </g>
</svg>
